# xmcd
#
# Track frame offsets: 
#        183
#        13958
#        35655
#        52488
#        66550
#        81660
#        96078
#        114068
#        132033
#        143370
#        156930
#        174820
#        195715
#        210743
#        226630
#        242960
#
# Disc length: 3446 seconds
#
# Revision: 4
# Processed by: cddbd v1.5.2PL0 Copyright (c) Steve Scherf et al.
# Submitted via: ExactAudioCopy v1.0b3
#
DISCID=df0d7410
DTITLE=Various Artist - Deutsche Truck- and Western-Hitparade
DYEAR=1995
DGENRE=Country
TTITLE0=Truck Stop - Tausend Meilen
TTITLE1=Johnny Hill - Ruf Teddybär Eins-Vier
TTITLE2=Timmeltruck - Amerika
TTITLE3=Tom Astor - Mein Laster Wartet Schon
TTITLE4=Fred Rai - Es Hängt Ein Pferdehalfter An Der Wand
TTITLE5=Mike Frajara - Dusty Boots
TTITLE6=Tina West and Her Wagoners - Wo Ein Wille Ist
TTITLE7=Johnny Hill - Träume, Die Hat Jeder
TTITLE8=Armin Barthel - Hallo, Guten Morgen Deutschland
TTITLE9=Freddy Quinn - It's Country Time
TTITLE10=Timmeltruck - König Der Autobahn
TTITLE11=Peter Orloff - Die Strasse
TTITLE12=Gus Backus - Hey Cowboy
TTITLE13=Fred Rai - Freiheit Auf Räder
TTITLE14=Mike Frajara - Slow Truck
TTITLE15=Frank Spelane and Alamo - Vorüber, Vergessen, Vorbei
EXTD=YEAR: 1995
EXTT0=
EXTT1=
EXTT2=
EXTT3=
EXTT4=
EXTT5=
EXTT6=
EXTT7=
EXTT8=
EXTT9=
EXTT10=
EXTT11=
EXTT12=
EXTT13=
EXTT14=
EXTT15=
PLAYORDER=
